{"title":"The Darjeeling Limited (2007) 1080p BluRay {Dual Audio} {6Ch.} [","uid":9299506,"size":2095535823,"categoryP":"video","categoryS":"hd___movies","magnet":"?xt=urn:btih:f6cb746ce955f8e02d1419dd3b9bec38d0544d4d&amp;dn=The+Darjeeling+Limited+%282007%29+1080p+BluRay+%7BDual+Audio%7D+%7B6Ch.%7D+%5B&amp;tr=udp%3A%2F%2Ftracker.openbittorrent.com%3A80&amp;tr=udp%3A%2F%2Fopen.demonii.com%3A1337&amp;tr=udp%3A%2F%2Ftracker.coppersurfer.tk%3A6969&amp;tr=udp%3A%2F%2Fexodus.desync.com%3A6969","seeders":1,"leechers":0,"uploader":"SaNRiM","files":-1,"time":1386219567,"description":"Storyline\n\nA year after the accidental death of their father, three brothers -- each suffering from depression - meet for a train trip across India. Francis, the eldest, has organized it. The brothers argue, sulk, resent each other, and fight. The youngest, Jack, estranged from his girlfriend, is attracted to one of the train's attendants. Peter has left his pregnant wife at home, and he buys a venomous snake. After a few days, Francis discloses their surprising and disconcerting destination. Amid foreign surroundings, can the brothers sort out their differences? A funeral, a meditation, a hilltop ritual, and the Bengal Lancer figure in the reconciliation.\n\n\n\nTorrent Info\n\nGeneral\n\nUnique ID : 183665528150132505490720493036708127091 (0x8A2CB1ACB5E5F4299A40E690FF296173)\nComplete name :The Darjeeling Limited (2007) 1080p BluRay {Dual Audio} {6Ch.} [Hindi DD 5.1-English DD 5.1] ~SaNRiM~.mkv\nFormat : Matroska\nFormat version : Version 4 / Version 2\nFile size : 1.94 GiB\nDuration : 1h 31mn\nOverall bit rate : 3 028 Kbps\nEncoded date : UTC 2013-12-04 16:09:41\nWriting library : libebml v1.3.0 + libmatroska v1.4.1\n\n\nVideo\n\nID : 1\nFormat : AVC\nFormat/Info : Advanced Video Codec\nFormat profile : &lt;a class=&quot;__cf_email__&quot; href=&quot;/cdn-cgi/l/email-protection&quot; data-cfemail=&quot;5d15343a351d1169736d&quot;&gt;[email&amp;#160;protected]&lt;/a&gt;&lt;script data-cfhash='f9e31' type=&quot;text/javascript&quot;&gt;\n/* &lt;![CDATA[ */!function(){try{var t=&quot;currentScript&quot;in document?document.currentScript:function(){for(var t=document.getElementsByTagName(&quot;script&quot;),e=t.length;e--;)if(t[e].getAttribute(&quot;data-cfhash&quot;))return t[e]}();if(t&amp;&amp;t.previousSibling){var e,r,n,i,c=t.previousSibling,a=c.getAttribute(&quot;data-cfemail&quot;);if(a){for(e=&quot;&quot;,r=parseInt(a.substr(0,2),16),n=2;a.length-n;n+=2)i=parseInt(a.substr(n,2),16)^r,e+=String.fromCharCode(i);e=document.createTextNode(e),c.parentNode.replaceChild(e,c)}t.parentNode.removeChild(t);}}catch(u){}}()/* ]]&gt; */&lt;/script&gt;\nFormat settings, CABAC : Yes\nFormat settings, ReFrames : 4 frames\nCodec ID : V_MPEG4/ISO/AVC\nDuration : 1h 31mn\nBit rate : 1 940 Kbps\nWidth : 1 920 pixels\nHeight : 800 pixels\nDisplay aspect ratio : 2.40:1\nFrame rate mode : Constant\nFrame rate : 23.976 fps\nColor space : YUV\nChroma subsampling : 4:2:0\nBit depth : 8 bits\nScan type : Progressive\nBits/(Pixel*Frame) : 0.053\nStream size : 1.21 GiB (62%)\nTitle : ~SaNRiM~\nWriting library : x264 core 130 r2273 b3065e6\nLanguage : English\nDefault : Yes\nForced : No\n\n\nAudio #1\n\nID : 2\nFormat : AC-3\nFormat/Info : Audio Coding 3\nMode extension : CM (complete main)\nFormat settings, Endianness : Big\nCodec ID : A_AC3\nDuration : 1h 31mn\nBit rate mode : Constant\nBit rate : 448 Kbps\nChannel(s) : 6 channels\nChannel positions : Front: L C R, Side: L R, LFE\nSampling rate : 48.0 KHz\nBit depth : 16 bits\nCompression mode : Lossy\nDelay relative to video : 14s 880ms\nStream size : 294 MiB (15%)\nTitle : ~SaNRiM~\nLanguage : Hindi\nDefault : Yes\nForced : No\n\n\nAudio #2\n\nID : 3\nFormat : AC-3\nFormat/Info : Audio Coding 3\nMode extension : CM (complete main)\nFormat settings, Endianness : Big\nCodec ID : A_AC3\nDuration : 1h 31mn\nBit rate mode : Constant\nBit rate : 640 Kbps\nChannel(s) : 6 channels\nChannel positions : Front: L C R, Side: L R, LFE\nSampling rate : 48.0 KHz\nBit depth : 16 bits\nCompression mode : Lossy\nStream size : 420 MiB (21%)\nTitle : ~SaNRiM~\nLanguage : English\nDefault : No\nForced : No\n\n\n\nScreens\n &lt;a href=&quot;\nhttp://someimage.com/3GfZFTd&quot; rel=&quot;nofollow&quot; target=&quot;_NEW&quot;&gt;\nhttp://someimage.com/3GfZFTd&lt;/a&gt; &lt;a href=&quot;\nhttp://someimage.com/rHEyrc5&quot; rel=&quot;nofollow&quot; target=&quot;_NEW&quot;&gt;\nhttp://someimage.com/rHEyrc5&lt;/a&gt; &lt;a href=&quot;\nhttp://someimage.com/Jj5jWYP&quot; rel=&quot;nofollow&quot; target=&quot;_NEW&quot;&gt;\nhttp://someimage.com/Jj5jWYP&lt;/a&gt; &lt;a href=&quot;\nhttp://someimage.com/zPdJPX7&quot; rel=&quot;nofollow&quot; target=&quot;_NEW&quot;&gt;\nhttp://someimage.com/zPdJPX7&lt;/a&gt; &lt;a href=&quot;\nhttp://someimage.com/NGBHdHx&quot; rel=&quot;nofollow&quot; target=&quot;_NEW&quot;&gt;\nhttp://someimage.com/NGBHdHx&lt;/a&gt; &lt;a href=&quot;\nhttp://someimage.com/IqAZX5o&quot; rel=&quot;nofollow&quot; target=&quot;_NEW&quot;&gt;\nhttp://someimage.com/IqAZX5o&lt;/a&gt; &lt;a href=&quot;\nhttp://someimage.com/f7jOhfY&quot; rel=&quot;nofollow&quot; target=&quot;_NEW&quot;&gt;\nhttp://someimage.com/f7jOhfY&lt;/a&gt; &lt;a href=&quot;\nhttp://someimage.com/33DsIH1&quot; rel=&quot;nofollow&quot; target=&quot;_NEW&quot;&gt;\nhttp://someimage.com/33DsIH1&lt;/a&gt; &lt;a href=&quot;\nhttp://someimage.com/nvZ12ry&quot; rel=&quot;nofollow&quot; target=&quot;_NEW&quot;&gt;\nhttp://someimage.com/nvZ12ry&lt;/a&gt; &lt;a href=&quot;\nhttp://someimage.com/5YVDfmt&quot; rel=&quot;nofollow&quot; target=&quot;_NEW&quot;&gt;\nhttp://someimage.com/5YVDfmt&lt;/a&gt; &lt;a href=&quot;\nhttp://someimage.com/2iH7gRM&quot; rel=&quot;nofollow&quot; target=&quot;_NEW&quot;&gt;\nhttp://someimage.com/2iH7gRM&lt;/a&gt; &lt;a href=&quot;\nhttp://someimage.com/nWBgQ5y&quot; rel=&quot;nofollow&quot; target=&quot;_NEW&quot;&gt;\nhttp://someimage.com/nWBgQ5y&lt;/a&gt; &lt;a href=&quot;\nhttp://someimage.com/oDqCZgt&quot; rel=&quot;nofollow&quot; target=&quot;_NEW&quot;&gt;\nhttp://someimage.com/oDqCZgt&lt;/a&gt; &lt;a href=&quot;\nhttp://someimage.com/RxSMmEg&quot; rel=&quot;nofollow&quot; target=&quot;_NEW&quot;&gt;\nhttp://someimage.com/RxSMmEg&lt;/a&gt; &lt;a href=&quot;\nhttp://someimage.com/rQzkZ6i&quot; rel=&quot;nofollow&quot; target=&quot;_NEW&quot;&gt;\nhttp://someimage.com/rQzkZ6i&lt;/a&gt; &lt;a href=&quot;\nhttp://someimage.com/5NUiAmp&quot; rel=&quot;nofollow&quot; target=&quot;_NEW&quot;&gt;\nhttp://someimage.com/5NUiAmp&lt;/a&gt; &lt;a href=&quot;\nhttp://someimage.com/giOuM4X&quot; rel=&quot;nofollow&quot; target=&quot;_NEW&quot;&gt;\nhttp://someimage.com/giOuM4X&lt;/a&gt; &lt;a href=&quot;\nhttp://someimage.com/BbhiyZV&quot; rel=&quot;nofollow&quot; target=&quot;_NEW&quot;&gt;\nhttp://someimage.com/BbhiyZV&lt;/a&gt; &lt;a href=&quot;\nhttp://someimage.com/Lt12aqc&quot; rel=&quot;nofollow&quot; target=&quot;_NEW&quot;&gt;\nhttp://someimage.com/Lt12aqc&lt;/a&gt;\n\n\nA BIG THANKS TO Mohsin Pathan FOR AUDIO\n\n\n                    If you like my work please comment\n                          Any request? Just PM me\n                       Please seed long after download\n                         Thank you &amp; enjoy the best\n                                 ~SaNRiM~ ","torrent":{"xt":"urn:btih:f6cb746ce955f8e02d1419dd3b9bec38d0544d4d","amp;dn":"The+Darjeeling+Limited+%282007%29+1080p+BluRay+%7BDual+Audio%7D+%7B6Ch.%7D+%5B","amp;tr":["udp%3A%2F%2Ftracker.openbittorrent.com%3A80","udp%3A%2F%2Fopen.demonii.com%3A1337","udp%3A%2F%2Ftracker.coppersurfer.tk%3A6969","udp%3A%2F%2Fexodus.desync.com%3A6969"],"infoHash":"f6cb746ce955f8e02d1419dd3b9bec38d0544d4d","infoHashBuffer":{"type":"Buffer","data":[246,203,116,108,233,85,248,224,45,20,25,221,59,155,236,56,208,84,77,77]},"announce":[],"urlList":[]}}